# xmcd
#
# Track frame offsets: 
#        150
#        10057
#        18790
#        26270
#        34545
#        46677
#        55642
#        66057
#        75610
#        88905
#        95500
#        104742
#        111587
#        122317
#        130282
#        144045
#        154640
#        161012
#        172107
#        178812
#        188107
#        191992
#        200832
#        209387
#        216305
#        225047
#        233502
#        239370
#        248965
#        258215
#        270135
#        279957
#
# Disc length: 3857 seconds
#
# Revision: 0
# Processed by: cddbd v1.5.1PL0 Copyright (c) Steve Scherf et al.
# Submitted via: ExactAudioCopy v0.95a4
#
DISCID=a80f0f20
DTITLE=Hank Thompson - Sounds Of The Brazos Valley
DYEAR=1900
DGENRE=Country
TTITLE0=Whoa Saior
TTITLE1=Home In San Antone
TTITLE2=Boogie-Oo Drag
TTITLE3=Green Light
TTITLE4=A Good Man Is Hard To Find
TTITLE5=Down Yonder
TTITLE6=The Tramp On The Street
TTITLE7=Crying In The Deep Blue Sea
TTITLE8=Farther On Down The Road
TTITLE9=Sagebrush Shuffle
TTITLE10=That Beautiful Picture
TTITLE11=I Ain't Cryin' Over You
TTITLE12=The Devil's Dream
TTITLE13=When God Dips His Love In My Heart
TTITLE14=Always Late
TTITLE15=The Grass Looks Greener Over There
TTITLE16=Silver Bell
TTITLE17=Heart Full Of Love
TTITLE18=Piano Boogie
TTITLE19=Foggy River
TTITLE20=Beaumont Rag
TTITLE21=Easy To Please
TTITLE22=Uvalde Polka
TTITLE23=Panhandle Rag
TTITLE24=The World Is Not My Home
TTITLE25=I'll Step Aside
TTITLE26=Draggin' The Bow
TTITLE27=I'll Take You To The Picture Show
TTITLE28=Right Or Wrong
TTITLE29=I'll Be Your Sweetheart For A Day
TTITLE30=Baca's Boogie
TTITLE31=A Broken Heart And A Glass Of Beer
EXTD=
EXTT0=
EXTT1=
EXTT2=
EXTT3=
EXTT4=
EXTT5=
EXTT6=
EXTT7=
EXTT8=
EXTT9=
EXTT10=
EXTT11=
EXTT12=
EXTT13=
EXTT14=
EXTT15=
EXTT16=
EXTT17=
EXTT18=
EXTT19=
EXTT20=
EXTT21=
EXTT22=
EXTT23=
EXTT24=
EXTT25=
EXTT26=
EXTT27=
EXTT28=
EXTT29=
EXTT30=
EXTT31=
PLAYORDER=
